HIERARCHY
ROOT Hips
{
  OFFSET 5.84602e-005 68.8428 3.50346
  CHANNELS 6 Xposition Yposition Zposition Zrotation Xrotation Yrotation
  JOINT Spine
  {
    OFFSET 0 8.597 -4.6522
    CHANNELS 3 Zrotation Xrotation Yrotation
    JOINT Spine1
    {
      OFFSET 0 7.8454 0.4098
      CHANNELS 3 Zrotation Xrotation Yrotation
      JOINT Spine2
      {
        OFFSET 0 9.7078 -2.1609
        CHANNELS 3 Zrotation Xrotation Yrotation
        JOINT Neck
        {
          OFFSET 0 21.8761 -0.4549
          CHANNELS 3 Zrotation Xrotation Yrotation
          JOINT Head
          {
            OFFSET 0 12.3537 3.3602
            CHANNELS 3 Zrotation Xrotation Yrotation
            End Site
            {
              OFFSET 0.0001 18.9506 0.5657
            }
          }
        }
        JOINT LeftShoulder
        {
          OFFSET 2.2086 21.1115 7.2329
          CHANNELS 3 Zrotation Xrotation Yrotation
          JOINT LeftArm
          {
            OFFSET 13.1193 3.0282 -4.8998
            CHANNELS 3 Zrotation Xrotation Yrotation
            JOINT LeftForeArm
            {
              OFFSET 27.4081 -0.0973053 -0.2375
              CHANNELS 3 Zrotation Xrotation Yrotation
              JOINT LeftHand
              {
                OFFSET 22.8641 0.0662994 -0.1369
                CHANNELS 3 Zrotation Xrotation Yrotation
                JOINT LeftHandIndex1
                {
                  OFFSET 8.8614 0.775009 2.4612
                  CHANNELS 3 Zrotation Xrotation Yrotation
                  JOINT LeftHandIndex2
                  {
                    OFFSET 3.3146 -0.808304 0.5841
                    CHANNELS 3 Zrotation Xrotation Yrotation
                    JOINT LeftHandIndex3
                    {
                      OFFSET 2.2628 -0.552002 0.3989
                      CHANNELS 3 Zrotation Xrotation Yrotation
                      End Site
                      {
                        OFFSET 1.6102 -0.4807 0.2612
                      }
                    }
                  }
                }
                JOINT LeftHandMiddle1
                {
                  OFFSET 8.9937 0.895004 0.2143
                  CHANNELS 3 Zrotation Xrotation Yrotation
                  JOINT LeftHandMiddle2
                  {
                    OFFSET 4.0984 0.0113983 -0.0242
                    CHANNELS 3 Zrotation Xrotation Yrotation
                    JOINT LeftHandMiddle3
                    {
                      OFFSET 2.2716 0.00689697 -0.0138001
                      CHANNELS 3 Zrotation Xrotation Yrotation
                      End Site
                      {
                        OFFSET 2.0404 -0.1441 0.0027
                      }
                    }
                  }
                }
                JOINT LeftHandRing1
                {
                  OFFSET 8.5234 0.597198 -2.0164
                  CHANNELS 3 Zrotation Xrotation Yrotation
                  JOINT LeftHandRing2
                  {
                    OFFSET 3.7188 -0.188293 -0.2328
                    CHANNELS 3 Zrotation Xrotation Yrotation
                    JOINT LeftHandRing3
                    {
                      OFFSET 2.1191 -0.106598 -0.1332
                      CHANNELS 3 Zrotation Xrotation Yrotation
                      End Site
                      {
                        OFFSET 1.8737 -0.2304 -0.0886
                      }
                    }
                  }
                }
                JOINT LeftHandPinky1
                {
                  OFFSET 7.9094 -0.601089 -3.4825
                  CHANNELS 3 Zrotation Xrotation Yrotation
                  JOINT LeftHandPinky2
                  {
                    OFFSET 2.2874 -0.477005 -0.6314
                    CHANNELS 3 Zrotation Xrotation Yrotation
                    JOINT LeftHandPinky3
                    {
                      OFFSET 1.6774 -0.349396 -0.4633
                      CHANNELS 3 Zrotation Xrotation Yrotation
                      End Site
                      {
                        OFFSET 1.4888 -0.4091 -0.3416
                      }
                    }
                  }
                }
                JOINT LeftHandThumb1
                {
                  OFFSET 1.833 -1.3875 1.3896
                  CHANNELS 3 Zrotation Xrotation Yrotation
                  JOINT LeftHandThumb2
                  {
                    OFFSET 3.4129 -1.121 2.5732
                    CHANNELS 3 Zrotation Xrotation Yrotation
                    JOINT LeftHandThumb3
                    {
                      OFFSET 2.2474 -0.804199 1.6192
                      CHANNELS 3 Zrotation Xrotation Yrotation
                      End Site
                      {
                        OFFSET 1.6527 -0.5689 1.1317
                      }
                    }
                  }
                }
              }
            }
          }
        }
        JOINT RightShoulder
        {
          OFFSET -2.2086 21.1115 7.2329
          CHANNELS 3 Zrotation Xrotation Yrotation
          JOINT RightArm
          {
            OFFSET -13.1216 3.0287 -4.9007
            CHANNELS 3 Zrotation Xrotation Yrotation
            JOINT RightForeArm
            {
              OFFSET -27.4081 -0.0973053 -0.2375
              CHANNELS 3 Zrotation Xrotation Yrotation
              JOINT RightHand
              {
                OFFSET -22.8641 0.0664063 -0.1369
                CHANNELS 3 Zrotation Xrotation Yrotation
                JOINT RightHandIndex1
                {
                  OFFSET -8.8614 0.774994 2.4612
                  CHANNELS 3 Zrotation Xrotation Yrotation
                  JOINT RightHandIndex2
                  {
                    OFFSET -3.3146 -0.808304 0.5841
                    CHANNELS 3 Zrotation Xrotation Yrotation
                    JOINT RightHandIndex3
                    {
                      OFFSET -2.2628 -0.552002 0.3989
                      CHANNELS 3 Zrotation Xrotation Yrotation
                      End Site
                      {
                        OFFSET -1.6102 -0.4807 0.2612
                      }
                    }
                  }
                }
                JOINT RightHandMiddle1
                {
                  OFFSET -8.9937 0.894989 0.2143
                  CHANNELS 3 Zrotation Xrotation Yrotation
                  JOINT RightHandMiddle2
                  {
                    OFFSET -4.0984 0.0113983 -0.0242
                    CHANNELS 3 Zrotation Xrotation Yrotation
                    JOINT RightHandMiddle3
                    {
                      OFFSET -2.2716 0.00691223 -0.0138001
                      CHANNELS 3 Zrotation Xrotation Yrotation
                      End Site
                      {
                        OFFSET -2.0404 -0.1441 0.0027
                      }
                    }
                  }
                }
                JOINT RightHandRing1
                {
                  OFFSET -8.5234 0.597198 -2.0164
                  CHANNELS 3 Zrotation Xrotation Yrotation
                  JOINT RightHandRing2
                  {
                    OFFSET -3.7188 -0.188309 -0.2328
                    CHANNELS 3 Zrotation Xrotation Yrotation
                    JOINT RightHandRing3
                    {
                      OFFSET -2.1191 -0.106598 -0.1332
                      CHANNELS 3 Zrotation Xrotation Yrotation
                      End Site
                      {
                        OFFSET -1.8737 -0.2304 -0.0886
                      }
                    }
                  }
                }
                JOINT RightHandPinky1
                {
                  OFFSET -7.9094 -0.601105 -3.4825
                  CHANNELS 3 Zrotation Xrotation Yrotation
                  JOINT RightHandPinky2
                  {
                    OFFSET -2.2874 -0.477005 -0.6314
                    CHANNELS 3 Zrotation Xrotation Yrotation
                    JOINT RightHandPinky3
                    {
                      OFFSET -1.6774 -0.349396 -0.4633
                      CHANNELS 3 Zrotation Xrotation Yrotation
                      End Site
                      {
                        OFFSET -1.4888 -0.4091 -0.3416
                      }
                    }
                  }
                }
                JOINT RightHandThumb1
                {
                  OFFSET -1.833 -1.38751 1.3896
                  CHANNELS 3 Zrotation Xrotation Yrotation
                  JOINT RightHandThumb2
                  {
                    OFFSET -3.41299 -1.12099 2.5732
                    CHANNELS 3 Zrotation Xrotation Yrotation
                    JOINT RightHandThumb3
                    {
                      OFFSET -2.24741 -0.804108 1.6192
                      CHANNELS 3 Zrotation Xrotation Yrotation
                      End Site
                      {
                        OFFSET -1.6527 -0.5689 1.1317
                      }
                    }
                  }
                }
              }
            }
          }
        }
      }
    }
  }
  JOINT RightUpLeg
  {
    OFFSET -9.1966 3.8861 -0.7581
    CHANNELS 3 Zrotation Xrotation Yrotation
    JOINT RightLeg
    {
      OFFSET -0.7359 -41.0265 0
      CHANNELS 3 Zrotation Xrotation Yrotation
      JOINT RightFoot
      {
        OFFSET 0 -40.2855 0
        CHANNELS 3 Zrotation Xrotation Yrotation
        JOINT RightToeBase
        {
          OFFSET 0 -5.6122 11.7359
          CHANNELS 3 Zrotation Xrotation Yrotation
          End Site
          {
            OFFSET 0 0 7.8731
          }
        }
      }
    }
  }
  JOINT LeftUpLeg
  {
    OFFSET 9.1965 3.8864 -0.7581
    CHANNELS 3 Zrotation Xrotation Yrotation
    JOINT LeftLeg
    {
      OFFSET 0.7359 -41.0268 0
      CHANNELS 3 Zrotation Xrotation Yrotation
      JOINT LeftFoot
      {
        OFFSET 0 -40.2855 0
        CHANNELS 3 Zrotation Xrotation Yrotation
        JOINT LeftToeBase
        {
          OFFSET 0 -5.6122 11.7359
          CHANNELS 3 Zrotation Xrotation Yrotation
          End Site
          {
            OFFSET 0 0 7.8731
          }
        }
      }
    }
  }
}
MOTION
Frames:	5
Frame Time:	0.0333333
-6.93004 14.9232 40.0446 -180 84.5029 -180 -0.126966 -1.95728 -0.415522 -0.268376 -3.9136 -0.836117 -0.268376 -3.91357 -0.836117 -1.17207e-005 -36.2275 -1.12036e-005 2.57182e-008 -15.0017 -1.22499e-007 -0.759422 -13.9667 -26.3611 6.93345 -1.13613 -20.1026 33.4393 -19.1668 -35.5726 14.9696 -10.8676 1.96278 -3.18055e-015 1.19271e-015 1.19271e-015 3.18055e-015 2.98177e-016 -3.97569e-016 3.18055e-015 1.49089e-015 -0 -3.18055e-015 1.19271e-015 1.19271e-015 -0.0146271 -8.8912e-005 -1.59834e-008 4.41391e-032 -3.18055e-015 7.95139e-016 -3.18055e-015 1.19271e-015 1.19271e-015 -0.0186682 -0.001169 4.74565e-005 9.65542e-033 1.39149e-015 -3.97569e-016 -3.18055e-015 1.19271e-015 1.19271e-015 -0.0122935 -0.00325554 0.000677954 3.18055e-015 1.2921e-015 -0 -3.18055e-015 1.19271e-015 1.19271e-015 3.18055e-015 2.98177e-016 -3.97569e-016 3.18055e-015 1.49089e-015 -0 7.2355 0.0424262 -7.76787 107.888 13.5634 -42.2933 1.0043 -4.69483 40.5698 11.1813 -55.9916 28.0571 -3.32449e-007 5.49757e-008 -3.90742e-007 2.9432e-007 -2.77993e-007 1.34407e-007 9.54166e-015 -3.97569e-016 -1.19271e-015 -3.32449e-007 5.49757e-008 -3.90742e-007 0.014976 -8.94024e-005 5.87012e-006 3.18055e-015 1.98785e-016 -2.38542e-015 -3.32449e-007 5.49757e-008 -3.90742e-007 0.0189723 -0.00118957 -6.01612e-005 6.36111e-015 -3.57812e-015 1.19271e-015 -3.32449e-007 5.49757e-008 -3.90742e-007 0.0122449 -0.00324352 -0.00067227 5.46221e-031 -6.55989e-015 4.77083e-015 -3.32449e-007 5.49757e-008 -3.90742e-007 2.9432e-007 -2.77993e-007 1.34407e-007 9.54166e-015 -3.97569e-016 -1.19271e-015 -97.9412 -34.2918 -106.038 -57.1497 80.4627 65.2633 -41.7689 28.0288 66.8312 1.28129e-006 1.16159e-006 -6.6777e-007 97.9625 -34.6 105.777 57.0094 80.4967 -65.1362 41.3613 28.2085 -66.5672 5.80706e-007 -3.19221e-006 -4.70154e-007 
-6.93005 15.0845 40.0196 -180 84.0016 -180 -0.125581 -2.16171 -0.416651 -0.267189 -4.32246 -0.838943 -0.267189 -4.32245 -0.838944 -3.79735e-007 -35.9527 -9.72374e-006 7.89254e-007 -15.0017 1.22314e-007 -1.03112 -13.6507 -26.3156 6.93344 -1.13613 -20.1026 33.5543 -19.2441 -35.7322 14.6828 -10.7044 1.92278 -5.79803e-007 -6.15346e-007 -6.17964e-008 -1.19515e-006 -3.55438e-008 3.96341e-008 -5.79803e-007 -6.15346e-007 -6.17965e-008 -5.79803e-007 -6.15346e-007 -6.17964e-008 -0.0146529 -9.00424e-005 2.94688e-007 -1.1191e-007 -2.81495e-007 -3.2402e-007 -5.79803e-007 -6.15346e-007 -6.17964e-008 -0.0187955 -0.00117793 5.23471e-005 -1.12265e-007 -2.81575e-007 -3.24025e-007 -5.79803e-007 -6.15346e-007 -6.17964e-008 -0.0122554 -0.00324381 0.000665241 -5.79797e-007 -6.15334e-007 -6.18464e-008 -5.79803e-007 -6.15346e-007 -6.17964e-008 -1.19515e-006 -3.55438e-008 3.96341e-008 -5.79803e-007 -6.15346e-007 -6.17965e-008 6.67468 0.595596 -7.94153 108.688 14.1151 -41.9924 0.404179 -4.12501 39.4742 10.6751 -55.8919 28.4776 -2.91898e-007 2.78642e-007 -1.37778e-007 -6.36111e-015 1.25234e-014 1.59028e-015 -2.91898e-007 2.78642e-007 -1.37778e-007 -2.91898e-007 2.78642e-007 -1.37778e-007 0.0149838 -8.94185e-005 4.47633e-006 -2.91901e-007 2.78624e-007 -1.37814e-007 -2.91898e-007 2.78642e-007 -1.37778e-007 0.0189994 -0.00119243 -6.71227e-005 -2.91903e-007 2.7862e-007 -1.37821e-007 -2.91898e-007 2.78642e-007 -1.37778e-007 0.0123006 -0.00325599 -0.000672066 -2.91906e-007 2.78626e-007 -1.378e-007 -2.91898e-007 2.78642e-007 -1.37778e-007 -6.36111e-015 1.25234e-014 1.59028e-015 -2.91898e-007 2.78642e-007 -1.37778e-007 -98.3906 -34.7398 -106.289 -57.2088 80.4689 65.3223 -41.1743 28.426 66.3989 1.56964e-007 3.11258e-006 7.38364e-007 98.4125 -35.0329 106.042 57.069 80.503 -65.1957 40.7852 28.5952 -66.1469 1.07068e-006 4.33799e-008 3.65721e-007 
-6.93006 15.2459 39.9951 -180 83.5004 -180 -0.124194 -2.36603 -0.417752 -0.266008 -4.73107 -0.841719 -0.266008 -4.73111 -0.841719 -1.43475e-006 -35.6771 1.07661e-006 -1.35378e-007 -15.0017 -1.3434e-007 -1.30269 -13.3348 -26.2686 6.93345 -1.13614 -20.1026 33.6691 -19.3216 -35.8917 14.3963 -10.5411 1.88355 3.18055e-015 7.95139e-016 -3.97569e-016 0 1.09332e-015 -0 9.65542e-033 6.95746e-016 -7.95139e-016 3.18055e-015 7.95139e-016 -3.97569e-016 -0.0146028 -8.80856e-005 -1.2971e-006 9.54166e-015 1.78906e-015 -2.38542e-015 3.18055e-015 7.95139e-016 -3.97569e-016 -0.01879 -0.00117635 5.44786e-005 -3.18055e-015 1.98785e-015 3.97569e-016 3.18055e-015 7.95139e-016 -3.97569e-016 -0.0123756 -0.00327706 0.000691711 -2.06902e-033 -2.98177e-016 -3.97569e-016 3.18055e-015 7.95139e-016 -3.97569e-016 0 1.09332e-015 -0 9.65542e-033 6.95746e-016 -7.95139e-016 6.11557 1.15047 -8.10976 109.487 14.6706 -41.699 -0.184182 -3.54427 38.386 10.169 -55.7944 28.8985 -1.73625e-006 1.67558e-006 -8.47115e-007 -1.44688e-006 1.39631e-006 -7.05929e-007 -4.25973e-006 -3.60163e-007 -1.1798e-006 -1.73625e-006 1.67558e-006 -8.47115e-007 0.0150003 -8.67199e-005 1.01424e-005 -4.48157e-006 -1.28747e-007 -1.10885e-006 -1.73625e-006 1.67558e-006 -8.47115e-007 0.0189928 -0.00118911 -5.92216e-005 -4.25958e-006 -3.60371e-007 -1.1797e-006 -1.73625e-006 1.67558e-006 -8.47115e-007 0.0122432 -0.00324019 -0.000683388 -4.25966e-006 -3.60342e-007 -1.17965e-006 -1.73625e-006 1.67558e-006 -8.47115e-007 -1.44688e-006 1.39631e-006 -7.05929e-007 -4.25973e-006 -3.60163e-007 -1.1798e-006 -98.845 -35.1861 -106.545 -57.2685 80.4752 65.3821 -40.5739 28.8193 65.9602 -4.03691e-008 7.67034e-009 -9.84849e-008 98.8677 -35.4641 106.312 57.129 80.5093 -65.2557 40.2036 28.9782 -65.7205 -1.89804e-006 -3.18509e-006 2.03242e-007 
-6.93008 15.4075 39.9713 -180 82.9993 -180 -0.122801 -2.57011 -0.418814 -0.264827 -5.13923 -0.844425 -0.264827 -5.13924 -0.844425 -2.40073e-005 -35.4018 -2.12359e-005 -3.66068e-007 -15.0017 -1.99702e-008 -1.57416 -13.0193 -26.2202 6.93345 -1.13613 -20.1026 33.7837 -19.3995 -36.0512 14.1101 -10.3776 1.84522 -3.18055e-015 -1.19271e-015 -0 -0 -1.19271e-015 -0 -3.18055e-015 2.98177e-016 7.95139e-016 -3.18055e-015 -1.19271e-015 -0 -0.0146165 -8.91094e-005 3.71016e-006 -6.36111e-015 2.18663e-015 7.95139e-016 -3.18055e-015 -1.19271e-015 -0 -0.0187419 -0.0011765 6.01238e-005 6.36111e-015 -1.13307e-014 -3.97569e-016 -3.18055e-015 -1.19271e-015 -0 -0.0122503 -0.00324432 0.000684625 6.36111e-015 3.37934e-015 3.97569e-016 -3.18055e-015 -1.19271e-015 -0 -0 -1.19271e-015 -0 -3.18055e-015 2.98177e-016 7.95139e-016 5.55811 1.70659 -8.27256 110.285 15.2297 -41.4129 -0.760607 -2.95299 37.3054 9.66303 -55.699 29.3196 1.14701e-006 -1.11942e-006 5.78508e-007 5.73507e-007 -5.59708e-007 2.89254e-007 5.73507e-007 -5.59708e-007 2.89254e-007 1.14701e-006 -1.11942e-006 5.78508e-007 0.0149819 -9.38561e-005 -2.84264e-006 7.79757e-007 -6.5558e-007 2.46296e-007 1.14701e-006 -1.11942e-006 5.78508e-007 0.018927 -0.00118896 -6.39054e-005 5.7352e-007 -5.59661e-007 2.89341e-007 1.14701e-006 -1.11942e-006 5.78508e-007 0.012269 -0.00324845 -0.000681414 5.73525e-007 -5.59675e-007 2.89297e-007 1.14701e-006 -1.11942e-006 5.78508e-007 5.73507e-007 -5.59708e-007 2.89254e-007 5.73507e-007 -5.59708e-007 2.89254e-007 -99.3046 -35.6307 -106.807 -57.328 80.4814 65.4421 -39.9676 29.2087 65.5151 1.61349e-007 -3.06102e-008 3.94002e-007 99.3279 -35.8934 106.589 57.1884 80.5156 -65.3153 39.6164 29.3576 -65.2882 -8.07321e-008 -1.53466e-008 -1.96976e-007 
-6.93009 15.5693 39.948 -180 82.4982 -180 -0.121408 -2.77395 -0.419849 -0.263655 -5.54691 -0.847082 -0.263655 -5.54691 -0.847081 -4.15372e-006 -35.1268 -1.18963e-006 2.89319e-007 -15.0017 2.48342e-008 -1.84553 -12.704 -26.1702 6.93344 -1.13612 -20.1026 33.8981 -19.4777 -36.2105 13.8242 -10.214 1.8077 6.36111e-015 0 -0 6.36111e-015 -7.95139e-016 -3.97569e-016 6.36111e-015 -9.93923e-017 -0 6.36111e-015 0 -0 -0.0146531 -8.71161e-005 -1.38566e-005 -3.18055e-015 2.38542e-015 -3.97569e-016 6.36111e-015 0 -0 -0.0186765 -0.00117179 6.64029e-005 9.54166e-015 2.98177e-016 -3.97569e-016 6.36111e-015 0 -0 -0.0124097 -0.00328598 0.000681654 4.76734e-007 3.50275e-007 -2.4527e-007 6.36111e-015 0 -0 6.36111e-015 -7.95139e-016 -3.97569e-016 6.36111e-015 -9.93923e-017 -0 5.00228 2.26424 -8.42992 111.082 15.7922 -41.1344 -1.32488 -2.35165 36.2324 9.1573 -55.6057 29.741 5.68069e-007 -5.60829e-007 2.96197e-007 1.32669e-006 -1.0814e-006 5.78782e-007 5.68069e-007 -5.60829e-007 2.96197e-007 5.68069e-007 -5.60829e-007 2.96197e-007 0.0150002 -9.35978e-005 -1.92834e-006 5.68077e-007 -5.6079e-007 2.9627e-007 5.68069e-007 -5.60829e-007 2.96197e-007 0.019043 -0.00119207 -5.3772e-005 3.75825e-007 -6.00924e-007 3.0991e-007 5.68069e-007 -5.60829e-007 2.96197e-007 0.012246 -0.00324433 -0.000681569 3.7644e-007 -6.00757e-007 3.09924e-007 5.68069e-007 -5.60829e-007 2.96197e-007 1.32669e-006 -1.0814e-006 5.78782e-007 5.68069e-007 -5.60829e-007 2.96197e-007 -99.7695 -36.0735 -107.075 -57.3876 80.4876 65.5023 -39.3555 29.5939 65.0637 -2.82134e-007 5.34425e-008 -6.89614e-007 99.7934 -36.3209 106.87 57.2485 80.5218 -65.376 39.0237 29.7331 -64.8497 1.03366e-007 -1.08145e-006 9.18011e-007 
